<?xml version="1.0" encoding="UTF-8" standalone="no"?>
<!-- Created with Inkscape (http://www.inkscape.org/) -->

<svg
   version="1.1"
   id="svg6558"
   width="1258.5333"
   height="492.1333"
   viewBox="0 0 1258.5333 492.1333"
   xmlns="http://www.w3.org/2000/svg"
   xmlns:svg="http://www.w3.org/2000/svg">
  <defs
     id="defs6562">
    <clipPath
       clipPathUnits="userSpaceOnUse"
       id="clipPath6672">
      <path
         d="M 0,0 H 960 V 540 H 0 Z"
         clip-rule="evenodd"
         id="path6670" />
    </clipPath>
    <clipPath
       clipPathUnits="userSpaceOnUse"
       id="clipPath6686">
      <path
         d="M 0,0 H 960 V 540 H 0 Z"
         clip-rule="evenodd"
         id="path6684" />
    </clipPath>
    <clipPath
       clipPathUnits="userSpaceOnUse"
       id="clipPath6698">
      <path
         d="M 0,0 H 960 V 540 H 0 Z"
         clip-rule="evenodd"
         id="path6696" />
    </clipPath>
    <clipPath
       clipPathUnits="userSpaceOnUse"
       id="clipPath6712">
      <path
         d="M 0,0 H 960 V 540 H 0 Z"
         clip-rule="evenodd"
         id="path6710" />
    </clipPath>
    <clipPath
       clipPathUnits="userSpaceOnUse"
       id="clipPath6724">
      <path
         d="M 0,0 H 960 V 540 H 0 Z"
         clip-rule="evenodd"
         id="path6722" />
    </clipPath>
    <clipPath
       clipPathUnits="userSpaceOnUse"
       id="clipPath6736">
      <path
         d="M 0,0 H 960 V 540 H 0 Z"
         clip-rule="evenodd"
         id="path6734" />
    </clipPath>
    <clipPath
       clipPathUnits="userSpaceOnUse"
       id="clipPath6748">
      <path
         d="M 0,0 H 960 V 540 H 0 Z"
         clip-rule="evenodd"
         id="path6746" />
    </clipPath>
    <clipPath
       clipPathUnits="userSpaceOnUse"
       id="clipPath6760">
      <path
         d="M 0,0 H 960 V 540 H 0 Z"
         clip-rule="evenodd"
         id="path6758" />
    </clipPath>
    <clipPath
       clipPathUnits="userSpaceOnUse"
       id="clipPath6774">
      <path
         d="M 0,0 H 960 V 540 H 0 Z"
         clip-rule="evenodd"
         id="path6772" />
    </clipPath>
    <clipPath
       clipPathUnits="userSpaceOnUse"
       id="clipPath6786">
      <path
         d="M 0,0 H 960 V 540 H 0 Z"
         clip-rule="evenodd"
         id="path6784" />
    </clipPath>
    <clipPath
       clipPathUnits="userSpaceOnUse"
       id="clipPath6800">
      <path
         d="M 0,0 H 960 V 540 H 0 Z"
         clip-rule="evenodd"
         id="path6798" />
    </clipPath>
    <clipPath
       clipPathUnits="userSpaceOnUse"
       id="clipPath6814">
      <path
         d="M 0,0 H 960 V 540 H 0 Z"
         clip-rule="evenodd"
         id="path6812" />
    </clipPath>
    <clipPath
       clipPathUnits="userSpaceOnUse"
       id="clipPath6826">
      <path
         d="M 0,0 H 960 V 540 H 0 Z"
         clip-rule="evenodd"
         id="path6824" />
    </clipPath>
    <clipPath
       clipPathUnits="userSpaceOnUse"
       id="clipPath6838">
      <path
         d="M 0,0 H 960 V 540 H 0 Z"
         clip-rule="evenodd"
         id="path6836" />
    </clipPath>
    <clipPath
       clipPathUnits="userSpaceOnUse"
       id="clipPath6850">
      <path
         d="M 0,0 H 960 V 540 H 0 Z"
         clip-rule="evenodd"
         id="path6848" />
    </clipPath>
    <clipPath
       clipPathUnits="userSpaceOnUse"
       id="clipPath6864">
      <path
         d="M 0,0 H 960 V 540 H 0 Z"
         clip-rule="evenodd"
         id="path6862" />
    </clipPath>
    <clipPath
       clipPathUnits="userSpaceOnUse"
       id="clipPath6876">
      <path
         d="M 0,0 H 960 V 540 H 0 Z"
         clip-rule="evenodd"
         id="path6874" />
    </clipPath>
    <clipPath
       clipPathUnits="userSpaceOnUse"
       id="clipPath6890">
      <path
         d="M 0,0 H 960 V 540 H 0 Z"
         clip-rule="evenodd"
         id="path6888" />
    </clipPath>
    <clipPath
       clipPathUnits="userSpaceOnUse"
       id="clipPath6902">
      <path
         d="M 0,0 H 960 V 540 H 0 Z"
         clip-rule="evenodd"
         id="path6900" />
    </clipPath>
    <clipPath
       clipPathUnits="userSpaceOnUse"
       id="clipPath6914">
      <path
         d="M 0,0 H 960 V 540 H 0 Z"
         clip-rule="evenodd"
         id="path6912" />
    </clipPath>
    <clipPath
       clipPathUnits="userSpaceOnUse"
       id="clipPath6926">
      <path
         d="M 0,0 H 960 V 540 H 0 Z"
         clip-rule="evenodd"
         id="path6924" />
    </clipPath>
    <clipPath
       clipPathUnits="userSpaceOnUse"
       id="clipPath6938">
      <path
         d="M 0,0 H 960 V 540 H 0 Z"
         clip-rule="evenodd"
         id="path6936" />
    </clipPath>
    <clipPath
       clipPathUnits="userSpaceOnUse"
       id="clipPath6952">
      <path
         d="M 0,0 H 960 V 540 H 0 Z"
         clip-rule="evenodd"
         id="path6950" />
    </clipPath>
    <clipPath
       clipPathUnits="userSpaceOnUse"
       id="clipPath6964">
      <path
         d="M 0,0 H 960 V 540 H 0 Z"
         clip-rule="evenodd"
         id="path6962" />
    </clipPath>
    <clipPath
       clipPathUnits="userSpaceOnUse"
       id="clipPath6976">
      <path
         d="M 0,0 H 960 V 540 H 0 Z"
         clip-rule="evenodd"
         id="path6974" />
    </clipPath>
    <clipPath
       clipPathUnits="userSpaceOnUse"
       id="clipPath6988">
      <path
         d="M 0,0 H 960 V 540 H 0 Z"
         clip-rule="evenodd"
         id="path6986" />
    </clipPath>
    <clipPath
       clipPathUnits="userSpaceOnUse"
       id="clipPath7002">
      <path
         d="M 0,0 H 960 V 540 H 0 Z"
         clip-rule="evenodd"
         id="path7000" />
    </clipPath>
    <clipPath
       clipPathUnits="userSpaceOnUse"
       id="clipPath7014">
      <path
         d="M 0,0 H 960 V 540 H 0 Z"
         clip-rule="evenodd"
         id="path7012" />
    </clipPath>
    <clipPath
       clipPathUnits="userSpaceOnUse"
       id="clipPath7026">
      <path
         d="M 0,0 H 960 V 540 H 0 Z"
         clip-rule="evenodd"
         id="path7024" />
    </clipPath>
    <clipPath
       clipPathUnits="userSpaceOnUse"
       id="clipPath7038">
      <path
         d="M 0,0 H 960 V 540 H 0 Z"
         clip-rule="evenodd"
         id="path7036" />
    </clipPath>
    <clipPath
       clipPathUnits="userSpaceOnUse"
       id="clipPath7050">
      <path
         d="M 0,0 H 960 V 540 H 0 Z"
         clip-rule="evenodd"
         id="path7048" />
    </clipPath>
    <clipPath
       clipPathUnits="userSpaceOnUse"
       id="clipPath7062">
      <path
         d="M 0,0 H 960 V 540 H 0 Z"
         clip-rule="evenodd"
         id="path7060" />
    </clipPath>
    <clipPath
       clipPathUnits="userSpaceOnUse"
       id="clipPath7074">
      <path
         d="M 0,0 H 960 V 540 H 0 Z"
         clip-rule="evenodd"
         id="path7072" />
    </clipPath>
    <clipPath
       clipPathUnits="userSpaceOnUse"
       id="clipPath7086">
      <path
         d="M 0,0 H 960 V 540 H 0 Z"
         clip-rule="evenodd"
         id="path7084" />
    </clipPath>
    <clipPath
       clipPathUnits="userSpaceOnUse"
       id="clipPath7098">
      <path
         d="M 0,0 H 960 V 540 H 0 Z"
         clip-rule="evenodd"
         id="path7096" />
    </clipPath>
    <clipPath
       clipPathUnits="userSpaceOnUse"
       id="clipPath7110">
      <path
         d="M 0,0 H 960 V 540 H 0 Z"
         clip-rule="evenodd"
         id="path7108" />
    </clipPath>
    <clipPath
       clipPathUnits="userSpaceOnUse"
       id="clipPath7122">
      <path
         d="M 0,0 H 960 V 540 H 0 Z"
         clip-rule="evenodd"
         id="path7120" />
    </clipPath>
  </defs>
  <g
     id="g6566"
     transform="matrix(1.3333333,0,0,-1.3333333,-13.4,550.86665)">
    <g
       id="g6666">
      <g
         id="g6668"
         clip-path="url(#clipPath6672)">
        <text
           xml:space="preserve"
           transform="matrix(1,0,0,-1,18.925,380.67)"
           style="font-variant:normal;font-weight:normal;font-size:20px;font-family:'Microsoft YaHei';-inkscape-font-specification:MicrosoftYaHei;writing-mode:lr-tb;fill:#000000;fill-opacity:1;fill-rule:nonzero;stroke:none"
           id="text6676"><tspan
             x="0 12.58 24.959999 35.360001 46.740002 54.380001 60.139999 69.400002 81.720001 94.5 113.32 118.7 126.16 135.3 141.28 154.06 161.46001 174.25999 185.64"
             y="0"
             id="tspan6674">Buyer submits order</tspan></text>
      </g>
    </g>
    <path
       d="m 11.8,344.6 h 215.4 v 67.8 H 11.8 Z"
       style="fill:none;stroke:#000000;stroke-width:1.5;stroke-linecap:butt;stroke-linejoin:miter;stroke-miterlimit:10;stroke-dasharray:none;stroke-opacity:1"
       id="path6678" />
    <g
       id="g6680">
      <g
         id="g6682"
         clip-path="url(#clipPath6686)">
        <text
           xml:space="preserve"
           transform="matrix(1,0,0,-1,22.4,272.55)"
           style="font-variant:normal;font-weight:normal;font-size:20px;font-family:'Microsoft YaHei';-inkscape-font-specification:MicrosoftYaHei;writing-mode:lr-tb;fill:#000000;fill-opacity:1;fill-rule:nonzero;stroke:none"
           id="text6690"><tspan
             x="0 12.58 24.959999 35.360001 46.740002 54.380001 60.139999 72.739998 83.800003 94.379997 103.54 109.34 116.54 129.32001 135.3 142.75999 155.08 160.48 167.88 180.67999"
             y="0"
             id="tspan6688">Buyer pays to third </tspan></text>
      </g>
    </g>
    <g
       id="g6692">
      <g
         id="g6694"
         clip-path="url(#clipPath6698)">
        <text
           xml:space="preserve"
           transform="matrix(1,0,0,-1,22.4,248.55)"
           style="font-variant:normal;font-weight:normal;font-size:20.025px;font-family:'Microsoft YaHei';-inkscape-font-specification:MicrosoftYaHei;writing-mode:lr-tb;fill:#000000;fill-opacity:1;fill-rule:nonzero;stroke:none"
           id="text6702"><tspan
             x="0 12.595765 23.589491 31.759649 39.16888 49.762104 55.749599 66.743324 76.775848 86.748283 99.524269 111.89968 124.27517"
             y="0"
             id="tspan6700">party account</tspan></text>
      </g>
    </g>
    <path
       d="m 12.4,231.2 h 215.4 v 73 H 12.4 Z"
       style="fill:none;stroke:#000000;stroke-width:1.5;stroke-linecap:butt;stroke-linejoin:miter;stroke-miterlimit:10;stroke-dasharray:none;stroke-opacity:1"
       id="path6704" />
    <g
       id="g6706">
      <g
         id="g6708"
         clip-path="url(#clipPath6712)">
        <text
           xml:space="preserve"
           transform="matrix(1,0,0,-1,22.4,168.1)"
           style="font-variant:normal;font-weight:normal;font-size:20.025px;font-family:'Microsoft YaHei';-inkscape-font-specification:MicrosoftYaHei;writing-mode:lr-tb;fill:#000000;fill-opacity:1;fill-rule:nonzero;stroke:none"
           id="text6716"><tspan
             x="0 11.394225 23.769714 29.156361 36.565609 49.381611 55.168915 67.764603 78.758324 86.928482 94.337814 104.93104 110.91853 123.51422 134.50795 145.10117 163.86459 175.27887 187.65428 195.0636"
             y="0"
             id="tspan6714">Third party payment </tspan></text>
      </g>
    </g>
    <g
       id="g6718">
      <g
         id="g6720"
         clip-path="url(#clipPath6724)">
        <text
           xml:space="preserve"
           transform="matrix(1,0,0,-1,22.4,144.08)"
           style="font-variant:normal;font-weight:normal;font-size:20px;font-family:'Microsoft YaHei';-inkscape-font-specification:MicrosoftYaHei;writing-mode:lr-tb;fill:#000000;fill-opacity:1;fill-rule:nonzero;stroke:none"
           id="text6728"><tspan
             x="0 5.3800001 17.76 27.02 34.360001 39.740002 47.200001 59.52 66.980003 72.300003 85.120003 97.5 106.76 112.68 119.68 127.08 138.46001 149.84 159.67999 171.02"
             y="0"
             id="tspan6726">institutions freeze </tspan></text>
      </g>
    </g>
    <g
       id="g6730">
      <g
         id="g6732"
         clip-path="url(#clipPath6736)">
        <text
           xml:space="preserve"
           transform="matrix(1,0,0,-1,22.4,120.08)"
           style="font-variant:normal;font-weight:normal;font-size:20px;font-family:'Microsoft YaHei';-inkscape-font-specification:MicrosoftYaHei;writing-mode:lr-tb;fill:#000000;fill-opacity:1;fill-rule:nonzero;stroke:none"
           id="text6740"><tspan
             x="0 12.6 23.66 34.240002 52.98 64.379997 76.760002 84.220001 93.360001 99.160004 110.22 122.54 135.34"
             y="0"
             id="tspan6738">payments and </tspan></text>
      </g>
    </g>
    <g
       id="g6742">
      <g
         id="g6744"
         clip-path="url(#clipPath6748)">
        <text
           xml:space="preserve"
           transform="matrix(1,0,0,-1,22.4,96.075)"
           style="font-variant:normal;font-weight:normal;font-size:20.025px;font-family:'Microsoft YaHei';-inkscape-font-specification:MicrosoftYaHei;writing-mode:lr-tb;fill:#000000;fill-opacity:1;fill-rule:nonzero;stroke:none"
           id="text6752"><tspan
             x="0 7.4092298 15.05878 26.012495 38.387905 47.57938 54.528053 65.962334 73.611877 79.539284 87.008606 99.344002 110.73827 129.50169 135.32899 142.5379 155.3139 161.30139 172.29512"
             y="0"
             id="tspan6750">transfer them to a </tspan></text>
      </g>
    </g>
    <g
       id="g6754">
      <g
         id="g6756"
         clip-path="url(#clipPath6760)">
        <text
           xml:space="preserve"
           transform="matrix(1,0,0,-1,22.4,72.05)"
           style="font-variant:normal;font-weight:normal;font-size:20px;font-family:'Microsoft YaHei';-inkscape-font-specification:MicrosoftYaHei;writing-mode:lr-tb;fill:#000000;fill-opacity:1;fill-rule:nonzero;stroke:none"
           id="text6764"><tspan
             x="0 12.8 24.18 36.98 42.360001 52.380001 63.360001 70.559998 81.940002 94.739998 100.54 111.6 121.54 131.56 144.32001 156.7 169.08"
             y="0"
             id="tspan6762">dedicated account</tspan></text>
      </g>
    </g>
    <path
       d="M 10.8,61.6 H 227.2 V 191.8 H 10.8 Z"
       style="fill:none;stroke:#000000;stroke-width:1.5;stroke-linecap:butt;stroke-linejoin:miter;stroke-miterlimit:10;stroke-dasharray:none;stroke-opacity:1"
       id="path6766" />
    <g
       id="g6768">
      <g
         id="g6770"
         clip-path="url(#clipPath6774)">
        <text
           xml:space="preserve"
           transform="matrix(1,0,0,-1,265.83,383.45)"
           style="font-variant:normal;font-weight:normal;font-size:20px;font-family:'Microsoft YaHei';-inkscape-font-specification:MicrosoftYaHei;writing-mode:lr-tb;fill:#000000;fill-opacity:1;fill-rule:nonzero;stroke:none"
           id="text6778"><tspan
             x="0 12.58 24.959999 35.360001 46.740002 54.380001 60.139999 67.540001 78.919998 88.940002 100.28 105.7 115.9 127.28 136.53999 142.46001 153.52 165.84 178.64"
             y="0"
             id="tspan6776">Buyer receives and </tspan></text>
      </g>
    </g>
    <g
       id="g6780">
      <g
         id="g6782"
         clip-path="url(#clipPath6786)">
        <text
           xml:space="preserve"
           transform="matrix(1,0,0,-1,265.83,359.45)"
           style="font-variant:normal;font-weight:normal;font-size:20px;font-family:'Microsoft YaHei';-inkscape-font-specification:MicrosoftYaHei;writing-mode:lr-tb;fill:#000000;fill-opacity:1;fill-rule:nonzero;stroke:none"
           id="text6790"><tspan
             x="0 5.3800001 17.76 27.02 39.799999 51.139999 61.16 68.620003 77.760002 83.739998 96.540001 109.32 122.1 134.89999"
             y="0"
             id="tspan6788">inspects goods</tspan></text>
      </g>
    </g>
    <path
       d="M 263.6,343 H 466 v 67.8 H 263.6 Z"
       style="fill:none;stroke:#000000;stroke-width:1.5;stroke-linecap:butt;stroke-linejoin:miter;stroke-miterlimit:10;stroke-dasharray:none;stroke-opacity:1"
       id="path6792" />
    <g
       id="g6794">
      <g
         id="g6796"
         clip-path="url(#clipPath6800)">
        <text
           xml:space="preserve"
           transform="matrix(1,0,0,-1,277.25,262)"
           style="font-variant:normal;font-weight:normal;font-size:20px;font-family:'Microsoft YaHei';-inkscape-font-specification:MicrosoftYaHei;writing-mode:lr-tb;fill:#000000;fill-opacity:1;fill-rule:nonzero;stroke:none"
           id="text6804"><tspan
             x="0 11.58 22.959999 28.34 33.720001 45.099998 52.740002 57.299999 66.559998 72.099998 84.900002 96.279999 101.66 107.04 117.24 128.62 137"
             y="0"
             id="tspan6802">Seller's delivery</tspan></text>
      </g>
    </g>
    <path
       d="m 260.4,232.4 h 200 v 71.8 h -200 z"
       style="fill:none;stroke:#000000;stroke-width:1.5;stroke-linecap:butt;stroke-linejoin:miter;stroke-miterlimit:10;stroke-dasharray:none;stroke-opacity:1"
       id="path6806" />
    <g
       id="g6808">
      <g
         id="g6810"
         clip-path="url(#clipPath6814)">
        <text
           xml:space="preserve"
           transform="matrix(1,0,0,-1,268.5,155.93)"
           style="font-variant:normal;font-weight:normal;font-size:20px;font-family:'Microsoft YaHei';-inkscape-font-specification:MicrosoftYaHei;writing-mode:lr-tb;fill:#000000;fill-opacity:1;fill-rule:nonzero;stroke:none"
           id="text6818"><tspan
             x="0 11.4 23.780001 29.16 36.560001 49.360001 55.16 67.760002 78.82 86.940002 94.400002 104.98 110.9 123.54 134.60001 145.17999 163.92 175.32001 187.7 195.16"
             y="0"
             id="tspan6816">Third party payment </tspan></text>
      </g>
    </g>
    <g
       id="g6820">
      <g
         id="g6822"
         clip-path="url(#clipPath6826)">
        <text
           xml:space="preserve"
           transform="matrix(1,0,0,-1,268.5,131.92)"
           style="font-variant:normal;font-weight:normal;font-size:20px;font-family:'Microsoft YaHei';-inkscape-font-specification:MicrosoftYaHei;writing-mode:lr-tb;fill:#000000;fill-opacity:1;fill-rule:nonzero;stroke:none"
           id="text6830"><tspan
             x="0 5.3800001 17.76 27.02 34.360001 39.740002 47.200001 59.52 66.980003 72.300003 85.120003 97.5 106.76 112.68 125.08 137.86 145.32001 150.64 158.03999 168.62"
             y="0"
             id="tspan6828">institutions notify </tspan></text>
      </g>
    </g>
    <g
       id="g6832">
      <g
         id="g6834"
         clip-path="url(#clipPath6838)">
        <text
           xml:space="preserve"
           transform="matrix(1,0,0,-1,268.5,107.92)"
           style="font-variant:normal;font-weight:normal;font-size:20.025px;font-family:'Microsoft YaHei';-inkscape-font-specification:MicrosoftYaHei;writing-mode:lr-tb;fill:#000000;fill-opacity:1;fill-rule:nonzero;stroke:none"
           id="text6842"><tspan
             x="0 9.1914749 20.54565 25.972404 31.35915 42.713326 50.362877 56.150082 63.55941 75.934822 86.928543 94.337776 100.52558 113.12126 124.11499 134.70822 153.47163 164.88591 177.26132 184.67065"
             y="0"
             id="tspan6840">seller that payment </tspan></text>
      </g>
    </g>
    <g
       id="g6844">
      <g
         id="g6846"
         clip-path="url(#clipPath6850)">
        <text
           xml:space="preserve"
           transform="matrix(1,0,0,-1,268.5,83.9)"
           style="font-variant:normal;font-weight:normal;font-size:20px;font-family:'Microsoft YaHei';-inkscape-font-specification:MicrosoftYaHei;writing-mode:lr-tb;fill:#000000;fill-opacity:1;fill-rule:nonzero;stroke:none"
           id="text6854"><tspan
             x="0 12.38 23.440001 32.580002 38.560001 51.34 62.740002 74.120003 86.5 92.099998 104.88 112.3 125.08 135.10001 146.44 155.7 164.88 176.25999"
             y="0"
             id="tspan6852">has been processed</tspan></text>
      </g>
    </g>
    <path
       d="M 264.8,60.4 H 466 V 190.6 H 264.8 Z"
       style="fill:none;stroke:#000000;stroke-width:1.5;stroke-linecap:butt;stroke-linejoin:miter;stroke-miterlimit:10;stroke-dasharray:none;stroke-opacity:1"
       id="path6856" />
    <g
       id="g6858">
      <g
         id="g6860"
         clip-path="url(#clipPath6864)">
        <text
           xml:space="preserve"
           transform="matrix(1,0,0,-1,539.67,385.1)"
           style="font-variant:normal;font-weight:normal;font-size:20px;font-family:'Microsoft YaHei';-inkscape-font-specification:MicrosoftYaHei;writing-mode:lr-tb;fill:#000000;fill-opacity:1;fill-rule:nonzero;stroke:none"
           id="text6868"><tspan
             x="0 20.360001 32.779999 44.16 51.619999 63.939999 75.339996 82.980003 88.739998 96.199997 108.52 119.92 125.9 138.7 151.48 164.25999 177.06 186.32001 192.06 204.84 212.48 218.24001 227.5 238.84 247.22 257.62 263 273.01999 284.35999 293.62 299.57999 310.64001 317.98001 329.35999"
             y="0"
             id="tspan6866">Whether the goods or services are </tspan></text>
      </g>
    </g>
    <g
       id="g6870">
      <g
         id="g6872"
         clip-path="url(#clipPath6876)">
        <text
           xml:space="preserve"
           transform="matrix(1,0,0,-1,539.67,361.1)"
           style="font-variant:normal;font-weight:normal;font-size:20.025px;font-family:'Microsoft YaHei';-inkscape-font-specification:MicrosoftYaHei;writing-mode:lr-tb;fill:#000000;fill-opacity:1;fill-rule:nonzero;stroke:none"
           id="text6880"><tspan
             x="0 10.032525 22.768425 35.183926 44.375401 49.762146 58.953621 66.162537 77.516716 89.952316 97.361549 103.34904 119.16879 124.49545 131.96477 144.30017 150.32768 157.73691 170.1124 181.46657 187.31387 197.34639 210.08229 222.49779 229.90703 237.55658 248.51028 258.54282"
             y="0"
             id="tspan6878">consistent with the contract</tspan></text>
      </g>
    </g>
    <path
       d="m 521.6,344 h 366.6 v 67.8 H 521.6 Z"
       style="fill:none;stroke:#000000;stroke-width:1.5;stroke-linecap:butt;stroke-linejoin:miter;stroke-miterlimit:10;stroke-dasharray:none;stroke-opacity:1"
       id="path6882" />
    <g
       id="g6884">
      <g
         id="g6886"
         clip-path="url(#clipPath6890)">
        <text
           xml:space="preserve"
           transform="matrix(1,0,0,-1,600.52,312.83)"
           style="font-variant:normal;font-weight:normal;font-size:20px;font-family:'Microsoft YaHei';-inkscape-font-specification:MicrosoftYaHei;writing-mode:lr-tb;fill:#000000;fill-opacity:1;fill-rule:nonzero;stroke:none"
           id="text6894"><tspan
             x="0 12.08 23.08"
             y="0"
             id="tspan6892">YES</tspan></text>
      </g>
    </g>
    <g
       id="g6896">
      <g
         id="g6898"
         clip-path="url(#clipPath6902)">
        <text
           xml:space="preserve"
           transform="matrix(1,0,0,-1,792.7,311.8)"
           style="font-variant:normal;font-weight:normal;font-size:20px;font-family:'Microsoft YaHei';-inkscape-font-specification:MicrosoftYaHei;writing-mode:lr-tb;fill:#000000;fill-opacity:1;fill-rule:nonzero;stroke:none"
           id="text6906"><tspan
             x="0 16.200001"
             y="0"
             id="tspan6904">NO</tspan></text>
      </g>
    </g>
    <g
       id="g6908">
      <g
         id="g6910"
         clip-path="url(#clipPath6914)">
        <text
           xml:space="preserve"
           transform="matrix(1,0,0,-1,496.57,273.17)"
           style="font-variant:normal;font-weight:normal;font-size:20.025px;font-family:'Microsoft YaHei';-inkscape-font-specification:MicrosoftYaHei;writing-mode:lr-tb;fill:#000000;fill-opacity:1;fill-rule:nonzero;stroke:none"
           id="text6918"><tspan
             x="0 12.555675 24.971174 35.364189 46.718365 54.367916 60.155121 72.530533 85.306519 92.715752 98.102493 105.05117 110.47793 121.8321 131.10367 136.87088 144.28011 156.65559 162.04234 169.45158 182.26759"
             y="0"
             id="tspan6916">Buyer notifies third </tspan></text>
      </g>
    </g>
    <g
       id="g6920">
      <g
         id="g6922"
         clip-path="url(#clipPath6926)">
        <text
           xml:space="preserve"
           transform="matrix(1,0,0,-1,496.57,249.15)"
           style="font-variant:normal;font-weight:normal;font-size:20px;font-family:'Microsoft YaHei';-inkscape-font-specification:MicrosoftYaHei;writing-mode:lr-tb;fill:#000000;fill-opacity:1;fill-rule:nonzero;stroke:none"
           id="text6930"><tspan
             x="0 12.6 23.66 31.780001 39.240002 49.82 55.740002 68.379997 79.440002 90.019997 108.76 120.16 132.53999 140"
             y="0"
             id="tspan6928">party payment </tspan></text>
      </g>
    </g>
    <g
       id="g6932">
      <g
         id="g6934"
         clip-path="url(#clipPath6938)">
        <text
           xml:space="preserve"
           transform="matrix(1,0,0,-1,496.57,225.15)"
           style="font-variant:normal;font-weight:normal;font-size:20px;font-family:'Microsoft YaHei';-inkscape-font-specification:MicrosoftYaHei;writing-mode:lr-tb;fill:#000000;fill-opacity:1;fill-rule:nonzero;stroke:none"
           id="text6942"><tspan
             x="0 5.3800001 17.76 27.02 34.360001 39.740002 47.200001 59.52 66.980003 72.300003 85.120003 97.5 106.76 112.68 125.1 132.03999 137.89999 150.5 161.56 172.14 190.88 202.28 214.66"
             y="0"
             id="tspan6940">institutions of payment</tspan></text>
      </g>
    </g>
    <path
       d="m 486.6,213.2 h 239.6 v 81.6 H 486.6 Z"
       style="fill:none;stroke:#000000;stroke-width:1.5;stroke-linecap:butt;stroke-linejoin:miter;stroke-miterlimit:10;stroke-dasharray:none;stroke-opacity:1"
       id="path6944" />
    <g
       id="g6946">
      <g
         id="g6948"
         clip-path="url(#clipPath6952)">
        <text
           xml:space="preserve"
           transform="matrix(1,0,0,-1,502.7,145.55)"
           style="font-variant:normal;font-weight:normal;font-size:20px;font-family:'Microsoft YaHei';-inkscape-font-specification:MicrosoftYaHei;writing-mode:lr-tb;fill:#000000;fill-opacity:1;fill-rule:nonzero;stroke:none"
           id="text6956"><tspan
             x="0 11.4 23.780001 29.16 36.560001 49.360001 55.16 67.760002 78.82 86.940002 94.400002 104.98 110.9 123.54 134.60001 145.17999 163.92 175.32001 187.7 195.16"
             y="0"
             id="tspan6954">Third party payment </tspan></text>
      </g>
    </g>
    <g
       id="g6958">
      <g
         id="g6960"
         clip-path="url(#clipPath6964)">
        <text
           xml:space="preserve"
           transform="matrix(1,0,0,-1,502.7,121.55)"
           style="font-variant:normal;font-weight:normal;font-size:20px;font-family:'Microsoft YaHei';-inkscape-font-specification:MicrosoftYaHei;writing-mode:lr-tb;fill:#000000;fill-opacity:1;fill-rule:nonzero;stroke:none"
           id="text6968"><tspan
             x="0 5.3800001 17.76 27.02 34.360001 39.740002 47.200001 59.52 66.980003 72.300003 85.120003 97.5 106.76 112.68 120.14 127.7 138.75999 151.08 160.34 167.28 178.67999 186.46001 195.72"
             y="0"
             id="tspan6966">institutions transfers </tspan></text>
      </g>
    </g>
    <g
       id="g6970">
      <g
         id="g6972"
         clip-path="url(#clipPath6976)">
        <text
           xml:space="preserve"
           transform="matrix(1,0,0,-1,502.7,97.55)"
           style="font-variant:normal;font-weight:normal;font-size:20.025px;font-family:'Microsoft YaHei';-inkscape-font-specification:MicrosoftYaHei;writing-mode:lr-tb;fill:#000000;fill-opacity:1;fill-rule:nonzero;stroke:none"
           id="text6980"><tspan
             x="0 18.763426 31.579426 43.954914 55.30909 65.902313 71.749619 78.958534 91.734528 97.722023 105.13125 117.50666 128.86084 134.70813 143.89961 155.25378 160.68063 166.06729 177.42146 185.07101 189.6768 198.86827"
             y="0"
             id="tspan6978">money to the seller's </tspan></text>
      </g>
    </g>
    <g
       id="g6982">
      <g
         id="g6984"
         clip-path="url(#clipPath6988)">
        <text
           xml:space="preserve"
           transform="matrix(1,0,0,-1,502.7,73.525)"
           style="font-variant:normal;font-weight:normal;font-size:20px;font-family:'Microsoft YaHei';-inkscape-font-specification:MicrosoftYaHei;writing-mode:lr-tb;fill:#000000;fill-opacity:1;fill-rule:nonzero;stroke:none"
           id="text6992"><tspan
             x="0 11.06 21 31.02 43.779999 56.16 68.540001"
             y="0"
             id="tspan6990">account</tspan></text>
      </g>
    </g>
    <path
       d="M 488.8,61.6 H 726.2 V 170.8 H 488.8 Z"
       style="fill:none;stroke:#000000;stroke-width:1.5;stroke-linecap:butt;stroke-linejoin:miter;stroke-miterlimit:10;stroke-dasharray:none;stroke-opacity:1"
       id="path6994" />
    <g
       id="g6996">
      <g
         id="g6998"
         clip-path="url(#clipPath7002)">
        <text
           xml:space="preserve"
           transform="matrix(1,0,0,-1,748.92,273.17)"
           style="font-variant:normal;font-weight:normal;font-size:20.025px;font-family:'Microsoft YaHei';-inkscape-font-specification:MicrosoftYaHei;writing-mode:lr-tb;fill:#000000;fill-opacity:1;fill-rule:nonzero;stroke:none"
           id="text7006"><tspan
             x="0 12.555675 24.971174 35.364189 46.718365 54.367916 60.155121 72.530533 85.306519 92.715752 98.102493 105.05117 110.47793 121.8321 131.10367 136.87088 144.28011 156.65559 162.04234 169.45158 182.26759"
             y="0"
             id="tspan7004">Buyer notifies third </tspan></text>
      </g>
    </g>
    <g
       id="g7008">
      <g
         id="g7010"
         clip-path="url(#clipPath7014)">
        <text
           xml:space="preserve"
           transform="matrix(1,0,0,-1,748.92,249.15)"
           style="font-variant:normal;font-weight:normal;font-size:20px;font-family:'Microsoft YaHei';-inkscape-font-specification:MicrosoftYaHei;writing-mode:lr-tb;fill:#000000;fill-opacity:1;fill-rule:nonzero;stroke:none"
           id="text7018"><tspan
             x="0 12.6 23.66 31.780001 39.240002 49.82 55.740002 68.379997 79.440002 90.019997 108.76 120.16 132.53999 140"
             y="0"
             id="tspan7016">party payment </tspan></text>
      </g>
    </g>
    <g
       id="g7020">
      <g
         id="g7022"
         clip-path="url(#clipPath7026)">
        <text
           xml:space="preserve"
           transform="matrix(1,0,0,-1,748.92,225.15)"
           style="font-variant:normal;font-weight:normal;font-size:20px;font-family:'Microsoft YaHei';-inkscape-font-specification:MicrosoftYaHei;writing-mode:lr-tb;fill:#000000;fill-opacity:1;fill-rule:nonzero;stroke:none"
           id="text7030"><tspan
             x="0 5.3800001 17.76 27.02 34.360001 39.740002 47.200001 59.52 66.980003 72.300003 85.120003 97.5 106.76 112.68 125.1"
             y="0"
             id="tspan7028">institutions of</tspan></text>
      </g>
    </g>
    <g
       id="g7032">
      <g
         id="g7034"
         clip-path="url(#clipPath7038)">
        <text
           xml:space="preserve"
           transform="matrix(1,0,0,-1,886.95,225.15)"
           style="font-variant:normal;font-weight:normal;font-size:20px;font-family:'Microsoft YaHei';-inkscape-font-specification:MicrosoftYaHei;writing-mode:lr-tb;fill:#000000;fill-opacity:1;fill-rule:nonzero;stroke:none"
           id="text7042"><tspan
             x="0 7.4000001 18.780001 25.719999 38.16 50.540001"
             y="0"
             id="tspan7040">refund</tspan></text>
      </g>
    </g>
    <g
       id="g7044">
      <g
         id="g7046"
         clip-path="url(#clipPath7050)">
        <text
           xml:space="preserve"
           transform="matrix(1,0,0,-1,745.55,169.98)"
           style="font-variant:normal;font-weight:normal;font-size:20px;font-family:'Microsoft YaHei';-inkscape-font-specification:MicrosoftYaHei;writing-mode:lr-tb;fill:#000000;fill-opacity:1;fill-rule:nonzero;stroke:none"
           id="text7054"><tspan
             x="0 11.58 22.959999 28.34 33.720001 45.099998 52.740002 58.5 69.559998 79.5 89.519997 100.86 113.64 121.1 130.3 136.10001 143.56 155.88 167.28"
             y="0"
             id="tspan7052">Seller accepts the </tspan></text>
      </g>
    </g>
    <g
       id="g7056">
      <g
         id="g7058"
         clip-path="url(#clipPath7062)">
        <text
           xml:space="preserve"
           transform="matrix(1,0,0,-1,745.55,149.97)"
           style="font-variant:normal;font-weight:normal;font-size:20px;font-family:'Microsoft YaHei';-inkscape-font-specification:MicrosoftYaHei;writing-mode:lr-tb;fill:#000000;fill-opacity:1;fill-rule:nonzero;stroke:none"
           id="text7066"><tspan
             x="0 7.4000001 18.780001 26.24 38.560001 46.200001 58.560001 69.940002 82.739998 88.540001 101.34 114.12 126.9 139.7 148.96001 154.5 165.56 177.88 190.67999"
             y="0"
             id="tspan7064">returned goods and </tspan></text>
      </g>
    </g>
    <g
       id="g7068">
      <g
         id="g7070"
         clip-path="url(#clipPath7074)">
        <text
           xml:space="preserve"
           transform="matrix(1,0,0,-1,745.55,129.97)"
           style="font-variant:normal;font-weight:normal;font-size:20px;font-family:'Microsoft YaHei';-inkscape-font-specification:MicrosoftYaHei;writing-mode:lr-tb;fill:#000000;fill-opacity:1;fill-rule:nonzero;stroke:none"
           id="text7078"><tspan
             x="0 12.38 25.16 32.619999 37.939999 44.939999 50.32 61.700001 70.959999 76.699997 84.160004 96.480003 101.88 109.28 122.08 127.88 140.48 151.53999 159.66 167.12 177.7"
             y="0"
             id="tspan7076">notifies third party </tspan></text>
      </g>
    </g>
    <g
       id="g7080">
      <g
         id="g7082"
         clip-path="url(#clipPath7086)">
        <text
           xml:space="preserve"
           transform="matrix(1,0,0,-1,745.55,109.98)"
           style="font-variant:normal;font-weight:normal;font-size:20.025px;font-family:'Microsoft YaHei';-inkscape-font-specification:MicrosoftYaHei;writing-mode:lr-tb;fill:#000000;fill-opacity:1;fill-rule:nonzero;stroke:none"
           id="text7090"><tspan
             x="0 12.595765 23.589491 34.182716 52.94614 64.360313 76.735802 84.145027 89.952316 95.338966 107.71445 116.90593 124.31516 129.7019 137.11113 149.48662 156.89586 162.28259 175.05852 187.43401 196.62547"
             y="0"
             id="tspan7088">payment institutions </tspan></text>
      </g>
    </g>
    <g
       id="g7092">
      <g
         id="g7094"
         clip-path="url(#clipPath7098)">
        <text
           xml:space="preserve"
           transform="matrix(1,0,0,-1,745.55,89.95)"
           style="font-variant:normal;font-weight:normal;font-size:20px;font-family:'Microsoft YaHei';-inkscape-font-specification:MicrosoftYaHei;writing-mode:lr-tb;fill:#000000;fill-opacity:1;fill-rule:nonzero;stroke:none"
           id="text7102"><tspan
             x="0 7.1999998 19.98 25.959999 33.419998 40.959999 52.02 64.339996 73.599998 80.540001 91.940002 99.580002 105.34 112.8 125.12 136.52"
             y="0"
             id="tspan7100">to transfer the </tspan></text>
      </g>
    </g>
    <g
       id="g7104">
      <g
         id="g7106"
         clip-path="url(#clipPath7110)">
        <text
           xml:space="preserve"
           transform="matrix(1,0,0,-1,745.55,69.95)"
           style="font-variant:normal;font-weight:normal;font-size:20px;font-family:'Microsoft YaHei';-inkscape-font-specification:MicrosoftYaHei;writing-mode:lr-tb;fill:#000000;fill-opacity:1;fill-rule:nonzero;stroke:none"
           id="text7114"><tspan
             x="0 18.74 31.58 43.959999 55.34 65.919998 71.739998 84.339996 95.400002 105.34 116.14 121.94 129.14 141.92"
             y="0"
             id="tspan7112">money back to </tspan></text>
      </g>
    </g>
    <g
       id="g7116">
      <g
         id="g7118"
         clip-path="url(#clipPath7122)">
        <text
           xml:space="preserve"
           transform="matrix(1,0,0,-1,745.55,49.95)"
           style="font-variant:normal;font-weight:normal;font-size:20.025px;font-family:'Microsoft YaHei';-inkscape-font-specification:MicrosoftYaHei;writing-mode:lr-tb;fill:#000000;fill-opacity:1;fill-rule:nonzero;stroke:none"
           id="text7126"><tspan
             x="0 12.795975 25.171465 35.5644 46.918575 54.568127 59.173916 68.365387 74.1726 85.166328 95.198853 105.17128 117.94727 130.32268 142.69817"
             y="0"
             id="tspan7124">buyer's account</tspan></text>
      </g>
    </g>
    <path
       d="M 742.4,214.6 H 953.2 V 296 H 742.4 Z"
       style="fill:none;stroke:#000000;stroke-width:1.5;stroke-linecap:butt;stroke-linejoin:miter;stroke-miterlimit:10;stroke-dasharray:none;stroke-opacity:1"
       id="path7128" />
    <path
       d="M 739,44.8 H 953.2 V 190.4 H 739 Z"
       style="fill:none;stroke:#000000;stroke-width:1.5;stroke-linecap:butt;stroke-linejoin:miter;stroke-miterlimit:10;stroke-dasharray:none;stroke-opacity:1"
       id="path7130" />
    <g
       id="g7132"
       transform="translate(120.75,344.52)">
      <path
         d="m 0,0 0.61,-37.95 -2.5,-0.04 -0.61,37.95 z m 4.7,-31.02 -5.3,-9.43 -5.61,9.26 c -0.35,0.59 -0.16,1.36 0.43,1.72 0.59,0.35 1.36,0.16 1.71,-0.43 v 0 l 4.5,-7.43 -2.16,-0.03 4.25,7.57 c 0.34,0.6 1.1,0.81 1.71,0.48 0.6,-0.34 0.81,-1.1 0.47,-1.71 z"
         style="fill:#000000;fill-opacity:1;fill-rule:nonzero;stroke:none"
         id="path7134" />
    </g>
    <g
       id="g7136"
       transform="translate(118.55,231.12)">
      <path
         d="m 0,0 0.61,-37.95 -2.5,-0.04 -0.61,37.95 z m 4.7,-31.02 -5.3,-9.43 -5.61,9.26 c -0.35,0.59 -0.16,1.36 0.43,1.72 0.59,0.35 1.36,0.16 1.71,-0.43 l 4.5,-7.43 -2.16,-0.03 4.25,7.57 c 0.34,0.6 1.1,0.81 1.71,0.48 0.6,-0.34 0.81,-1.1 0.47,-1.71 z"
         style="fill:#000000;fill-opacity:1;fill-rule:nonzero;stroke:none"
         id="path7138" />
    </g>
    <g
       id="g7140"
       transform="translate(227.3,125.38)">
      <path
         d="M 0,0 31.66,0.06 31.65,2.56 0,2.5 Z m 24.8,-4.15 9.34,5.47 -9.37,5.44 v 0 C 24.18,7.1 23.41,6.9 23.06,6.3 22.72,5.71 22.92,4.94 23.52,4.59 L 31.03,0.23 31.02,2.39 23.53,-2 C 22.94,-2.35 22.74,-3.11 23.08,-3.71 23.43,-4.3 24.2,-4.5 24.8,-4.15 Z"
         style="fill:#000000;fill-opacity:1;fill-rule:nonzero;stroke:none"
         id="path7142" />
    </g>
    <g
       id="g7144"
       transform="translate(358.75,193.9)">
      <path
         d="M 0,0 V 31.53 H -2.5 V 0 Z m 4.2,24.65 -5.45,9.36 -5.45,-9.36 c -0.35,-0.59 -0.15,-1.36 0.45,-1.7 0.59,-0.35 1.36,-0.15 1.7,0.45 l 4.38,7.5 h -2.16 l 4.38,-7.5 c 0.34,-0.6 1.11,-0.8 1.7,-0.45 0.6,0.34 0.8,1.11 0.45,1.7 z"
         style="fill:#000000;fill-opacity:1;fill-rule:nonzero;stroke:none"
         id="path7146" />
    </g>
    <g
       id="g7148"
       transform="translate(358.15,305.7)">
      <path
         d="M 0,0 V 31.52 H -2.5 V 0 Z m 4.2,24.65 -5.45,9.36 -5.45,-9.36 c -0.35,-0.59 -0.15,-1.36 0.45,-1.7 0.59,-0.35 1.36,-0.15 1.7,0.45 l 4.38,7.5 h -2.16 l 4.38,-7.5 c 0.34,-0.6 1.11,-0.8 1.7,-0.45 0.6,0.34 0.8,1.11 0.45,1.7 z"
         style="fill:#000000;fill-opacity:1;fill-rule:nonzero;stroke:none"
         id="path7150" />
    </g>
    <g
       id="g7152"
       transform="translate(467.72,374.47)">
      <path
         d="M 0,0 46.89,0.93 46.84,3.43 -0.04,2.5 Z M 40.1,-3.41 49.35,2.23 39.89,7.5 C 39.28,7.83 38.52,7.62 38.19,7.01 37.85,6.41 38.07,5.65 38.67,5.31 L 46.26,1.09 46.21,3.25 38.8,-1.28 v 0 c -0.59,-0.36 -0.77,-1.12 -0.41,-1.71 0.36,-0.59 1.13,-0.78 1.71,-0.42 z"
         style="fill:#000000;fill-opacity:1;fill-rule:nonzero;stroke:none"
         id="path7154" />
    </g>
    <g
       id="g7156"
       transform="translate(680.98,342.45)">
      <path
         d="m 0,0 -45.2,-38.44 1.62,-1.91 45.2,38.45 z m -42.7,-30.79 -3.58,-10.21 10.65,1.9 c 0.68,0.12 1.13,0.77 1.01,1.45 -0.12,0.68 -0.77,1.13 -1.45,1.01 l -8.54,-1.53 1.39,-1.64 2.88,8.19 c 0.23,0.65 -0.11,1.37 -0.76,1.59 -0.65,0.23 -1.37,-0.11 -1.6,-0.76 z"
         style="fill:#000000;fill-opacity:1;fill-rule:nonzero;stroke:none"
         id="path7158" />
    </g>
    <g
       id="g7160"
       transform="translate(751.33,341.23)">
      <path
         d="m 0,0 41.44,-36.92 -1.67,-1.87 -41.43,36.93 z m 39.1,-29.21 3.36,-10.3 -10.61,2.15 c -0.68,0.14 -1.12,0.8 -0.98,1.48 0.14,0.67 0.8,1.11 1.47,0.97 l 8.51,-1.72 -1.43,-1.61 -2.69,8.25 c -0.22,0.66 0.14,1.36 0.8,1.58 0.66,0.21 1.36,-0.15 1.57,-0.8 z"
         style="fill:#000000;fill-opacity:1;fill-rule:nonzero;stroke:none"
         id="path7162" />
    </g>
    <g
       id="g7164"
       transform="translate(606.75,211.92)">
      <path
         d="m 0,0 0.61,-37.95 -2.5,-0.04 -0.61,37.95 z m 4.7,-31.02 -5.3,-9.43 -5.61,9.26 c -0.35,0.59 -0.16,1.36 0.43,1.72 0.59,0.35 1.36,0.16 1.71,-0.43 v 0 l 4.5,-7.43 -2.16,-0.03 4.25,7.57 c 0.34,0.6 1.1,0.81 1.7,0.48 0.61,-0.34 0.82,-1.1 0.48,-1.71 z"
         style="fill:#000000;fill-opacity:1;fill-rule:nonzero;stroke:none"
         id="path7166" />
    </g>
    <g
       id="g7168"
       transform="translate(851.75,214.5)">
      <path
         d="M 0,0 V -23.2 H -2.5 V 0 Z m 4.2,-16.33 -5.45,-9.35 -5.45,9.35 c -0.35,0.6 -0.15,1.36 0.45,1.71 0.59,0.35 1.36,0.15 1.7,-0.45 l 4.38,-7.5 h -2.16 l 4.38,7.5 c 0.34,0.6 1.11,0.8 1.7,0.45 0.6,-0.35 0.8,-1.11 0.45,-1.71 z"
         style="fill:#000000;fill-opacity:1;fill-rule:nonzero;stroke:none"
         id="path7170" />
    </g>
  </g>
</svg>
